<svg width="70" height="45" fill="none" xmlns="http://www.w3.org/2000/svg"><g clip-path="url(#clip0)"><path d="M40.714 13.839h-1.636v14.802h1.636v5.395H28.342V28.64h1.57V17.128l-5.564 16.907h-4.844l-5.728-16.742V28.64h1.571v5.395H4.611V28.64h1.637V13.839H4.61V8.444h14.991l3.404 10.263L26.28 8.444h14.434v5.395zm1.296 20.197V28.64h1.637V13.839H42.01V8.444h22.094v9.934h-7.332V13.84h-3.96v5.197h2.88v3.75h-2.88v5.855h3.96v-5.197h7.332v10.591H42.01z" fill="#fff"/><path d="M27.504 1.37H.227v.457h27.277v-.456z" fill="#C4C4C4"/><path d="M.455 1.37H0v27.412h.455V1.37zm68.873 36.32H42.051v.457h27.277v-.457zm.455-26.954h-.455v27.411h.455v-27.41z" fill="#C4C4C4"/></g><defs><clipPath id="clip0"><path fill="#fff" d="M0 0h69.783v45H0z"/></clipPath></defs></svg>