<svg width="45" height="45" fill="none" xmlns="http://www.w3.org/2000/svg"><g clip-path="url(#clip0)"><path d="M42.862 35.254l-7.592 7.603c-1.532 1.535-3.234 2.149-5.311 2.149h-14.91c-2.145.034-3.813-.648-5.311-2.149l-7.592-7.603C.717 33.855.002 32.218.002 30.104V14.725c0-1.841.681-3.512 1.94-4.774l8-7.979C11.236.676 12.938-.006 14.946-.006h15.115c2.009 0 3.677.682 5.004 1.978l8.001 7.979c1.259 1.262 1.94 2.933 1.94 4.774v15.379c0 2.08-.749 3.751-2.144 5.15zm-.817-10.333c-.035-.443-.273-.682-.715-.682h-2.281v1.603c0 1.193-.171 1.807-1.192 1.807h-1.021c-1.021 0-1.192-.614-1.192-1.807v-1.603h-1.6c-1.191 0-1.804-.17-1.804-1.194v-1.091c0-1.023.613-1.193 1.804-1.193h1.6v-1.603c0-1.193.171-1.807 1.192-1.807h1.021c1.021 0 1.192.614 1.192 1.807v1.603h2.281c.476 0 .715-.273.715-.784v-4.911c0-1.261-.443-2.353-1.328-3.273L32.989 3.95c-.783-.785-1.77-1.023-2.893-1.023H14.912c-1.123 0-2.11.238-2.893 1.023l-7.727 7.843c-.92.92-1.329 2.012-1.329 3.273v15.038c-.034 1.262.375 2.182 1.26 3.069l7.592 7.605c.885.886 1.872 1.295 3.097 1.295h15.184c1.225 0 2.212-.409 3.097-1.295l7.592-7.605c.885-.852 1.26-1.807 1.26-3.069v-5.183zm-10.962 2.762c0 3.785-1.328 5.661-6.469 5.763-5.14-.102-6.467-1.978-6.467-5.763 0-2.557.17-4.501 2.45-5.388-1.906-1.397-1.94-2.83-1.94-3.989v-1.16c.205-3.853 1.498-5.319 5.957-5.319 4.46 0 5.753 1.466 5.958 5.319v1.16c0 1.159-.034 2.592-1.941 3.989 2.282.887 2.452 2.831 2.452 5.388zm-6.469-12.719c-1.871 0-2.621.682-2.621 2.967 0 2.216.75 2.967 2.621 2.967 1.873 0 2.622-.751 2.622-2.967 0-2.285-.749-2.967-2.622-2.967zm0 9.105c-2.178 0-2.961.988-2.961 3.137 0 2.148.783 3.001 2.961 3.001 2.179 0 2.962-.853 2.962-3.001 0-2.149-.783-3.137-2.962-3.137zm-10.173 9.104h-1.157c-.988 0-1.192-.614-1.192-1.807V16.635c0-.682-.204-.921-.647-.921h-.715c-1.19 0-1.804-.205-1.804-1.193v-1.126c0-.988.614-1.193 1.804-1.193h3.098c1.192 0 1.805.205 1.805 1.193v17.971c0 1.193-.205 1.807-1.192 1.807z" fill="#fff"/></g><defs><clipPath id="clip0"><path fill="#fff" d="M0 0h45v45H0z"/></clipPath></defs></svg>